<svg width="24" height="24" viewBox="0 0 24 24" fill="none" xmlns="http://www.w3.org/2000/svg">
<g clip-path="url(#clip0_103_1490)">
<path d="M12 0C5.37188 0 0 5.37188 0 12C0 18.6281 5.37188 24 12 24C18.6281 24 24 18.6281 24 12C24 5.37188 18.6281 0 12 0ZM12 21.9984C6.47812 21.9984 2.00156 17.5219 2.00156 12C2.00156 6.47812 6.47812 2.00156 12 2.00156C17.5219 2.00156 21.9984 6.47812 21.9984 12C21.9984 17.5219 17.5219 21.9984 12 21.9984ZM11.0016 11.0016H6V13.0031H12.9984V4.00313H10.9969V11.0016H11.0016Z" fill="black"/>
</g>
<defs>
<clipPath id="clip0_103_1490">
<rect width="24" height="24" fill="white"/>
</clipPath>
</defs>
</svg>
