<svg width="24" height="24" viewBox="0 0 24 24" fill="none" xmlns="http://www.w3.org/2000/svg">
<path d="M12.75 1.95418V8.81246C12.75 8.86218 12.7698 8.90988 12.8049 8.94504C12.8401 8.9802 12.8878 8.99996 12.9375 8.99996H19.7958C19.8143 8.99997 19.8324 8.9945 19.8478 8.98423C19.8633 8.97396 19.8753 8.95935 19.8824 8.94225C19.8895 8.92515 19.8914 8.90632 19.8878 8.88814C19.8843 8.86996 19.8754 8.85325 19.8623 8.84011L12.9098 1.88761C12.8967 1.87455 12.88 1.86568 12.8618 1.86211C12.8436 1.85854 12.8248 1.86043 12.8077 1.86756C12.7906 1.87468 12.776 1.8867 12.7657 1.90212C12.7555 1.91754 12.75 1.93565 12.75 1.95418Z" fill="black"/>
<path d="M11.625 10.5C11.5255 10.5 11.4302 10.4605 11.3598 10.3902C11.2895 10.3198 11.25 10.2245 11.25 10.125V1.5H4.3125C4.16332 1.5 4.02024 1.55926 3.91475 1.66475C3.80926 1.77024 3.75 1.91332 3.75 2.0625V21.9375C3.75 22.0867 3.80926 22.2298 3.91475 22.3352C4.02024 22.4407 4.16332 22.5 4.3125 22.5H19.6875C19.8367 22.5 19.9798 22.4407 20.0852 22.3352C20.1907 22.2298 20.25 22.0867 20.25 21.9375V10.5H11.625ZM16.5 18H7.5V16.5H16.5V18ZM16.5 14.25H7.5V12.75H16.5V14.25Z" fill="black"/>
</svg>
