<svg width="31" height="24" viewBox="0 0 31 24" fill="none" xmlns="http://www.w3.org/2000/svg">
<g clip-path="url(#clip0_103_1507)">
<path d="M6.54545 18V19.0909C6.54545 19.2386 6.49148 19.3665 6.38352 19.4744C6.27557 19.5824 6.14773 19.6364 6 19.6364H4.90909C4.76136 19.6364 4.63352 19.5824 4.52557 19.4744C4.41761 19.3665 4.36364 19.2386 4.36364 19.0909V18C4.36364 17.8523 4.41761 17.7244 4.52557 17.6165C4.63352 17.5085 4.76136 17.4545 4.90909 17.4545H6C6.14773 17.4545 6.27557 17.5085 6.38352 17.6165C6.49148 17.7244 6.54545 17.8523 6.54545 18ZM6.54545 13.6364V14.7273C6.54545 14.875 6.49148 15.0028 6.38352 15.1108C6.27557 15.2188 6.14773 15.2727 6 15.2727H4.90909C4.76136 15.2727 4.63352 15.2188 4.52557 15.1108C4.41761 15.0028 4.36364 14.875 4.36364 14.7273V13.6364C4.36364 13.4886 4.41761 13.3608 4.52557 13.2528C4.63352 13.1449 4.76136 13.0909 4.90909 13.0909H6C6.14773 13.0909 6.27557 13.1449 6.38352 13.2528C6.49148 13.3608 6.54545 13.4886 6.54545 13.6364ZM6.54545 9.27273V10.3636C6.54545 10.5114 6.49148 10.6392 6.38352 10.7472C6.27557 10.8551 6.14773 10.9091 6 10.9091H4.90909C4.76136 10.9091 4.63352 10.8551 4.52557 10.7472C4.41761 10.6392 4.36364 10.5114 4.36364 10.3636V9.27273C4.36364 9.125 4.41761 8.99716 4.52557 8.8892C4.63352 8.78125 4.76136 8.72727 4.90909 8.72727H6C6.14773 8.72727 6.27557 8.78125 6.38352 8.8892C6.49148 8.99716 6.54545 9.125 6.54545 9.27273ZM26.1818 18V19.0909C26.1818 19.2386 26.1278 19.3665 26.0199 19.4744C25.9119 19.5824 25.7841 19.6364 25.6364 19.6364H9.27273C9.125 19.6364 8.99716 19.5824 8.8892 19.4744C8.78125 19.3665 8.72727 19.2386 8.72727 19.0909V18C8.72727 17.8523 8.78125 17.7244 8.8892 17.6165C8.99716 17.5085 9.125 17.4545 9.27273 17.4545H25.6364C25.7841 17.4545 25.9119 17.5085 26.0199 17.6165C26.1278 17.7244 26.1818 17.8523 26.1818 18ZM26.1818 13.6364V14.7273C26.1818 14.875 26.1278 15.0028 26.0199 15.1108C25.9119 15.2188 25.7841 15.2727 25.6364 15.2727H9.27273C9.125 15.2727 8.99716 15.2188 8.8892 15.1108C8.78125 15.0028 8.72727 14.875 8.72727 14.7273V13.6364C8.72727 13.4886 8.78125 13.3608 8.8892 13.2528C8.99716 13.1449 9.125 13.0909 9.27273 13.0909H25.6364C25.7841 13.0909 25.9119 13.1449 26.0199 13.2528C26.1278 13.3608 26.1818 13.4886 26.1818 13.6364ZM26.1818 9.27273V10.3636C26.1818 10.5114 26.1278 10.6392 26.0199 10.7472C25.9119 10.8551 25.7841 10.9091 25.6364 10.9091H9.27273C9.125 10.9091 8.99716 10.8551 8.8892 10.7472C8.78125 10.6392 8.72727 10.5114 8.72727 10.3636V9.27273C8.72727 9.125 8.78125 8.99716 8.8892 8.8892C8.99716 8.78125 9.125 8.72727 9.27273 8.72727H25.6364C25.7841 8.72727 25.9119 8.78125 26.0199 8.8892C26.1278 8.99716 26.1818 9.125 26.1818 9.27273ZM28.3636 21.2727V7.09091C28.3636 6.94318 28.3097 6.81534 28.2017 6.70739C28.0938 6.59943 27.9659 6.54545 27.8182 6.54545H2.72727C2.57955 6.54545 2.4517 6.59943 2.34375 6.70739C2.2358 6.81534 2.18182 6.94318 2.18182 7.09091V21.2727C2.18182 21.4205 2.2358 21.5483 2.34375 21.6563C2.4517 21.7642 2.57955 21.8182 2.72727 21.8182H27.8182C27.9659 21.8182 28.0938 21.7642 28.2017 21.6563C28.3097 21.5483 28.3636 21.4205 28.3636 21.2727ZM30.5455 2.72727V21.2727C30.5455 22.0227 30.2784 22.6648 29.7443 23.1989C29.2102 23.733 28.5682 24 27.8182 24H2.72727C1.97727 24 1.33523 23.733 0.801136 23.1989C0.267045 22.6648 0 22.0227 0 21.2727V2.72727C0 1.97727 0.267045 1.33523 0.801136 0.801136C1.33523 0.267045 1.97727 0 2.72727 0H27.8182C28.5682 0 29.2102 0.267045 29.7443 0.801136C30.2784 1.33523 30.5455 1.97727 30.5455 2.72727Z" fill="black"/>
</g>
<defs>
<clipPath id="clip0_103_1507">
<rect width="30.5455" height="24" fill="white"/>
</clipPath>
</defs>
</svg>
