<svg width="24" height="24" viewBox="0 0 24 24" fill="none" xmlns="http://www.w3.org/2000/svg">
<g clip-path="url(#clip0_103_1499)">
<path d="M23.5291 11.9041C23.5291 18.3258 18.3239 23.5291 11.9041 23.5291C5.48419 23.5291 0.279053 18.3258 0.279053 11.9041C0.279053 5.48607 5.48419 0.279053 11.9041 0.279053C18.3239 0.279053 23.5291 5.48607 23.5291 11.9041ZM12.216 4.1228C9.66146 4.1228 8.03218 5.19891 6.75277 7.11146C6.58702 7.35924 6.64247 7.69341 6.88004 7.87355L8.50655 9.10683C8.75054 9.29185 9.09816 9.24783 9.28773 9.00737C10.1251 7.94527 10.6993 7.32938 11.9738 7.32938C12.9314 7.32938 14.1159 7.94569 14.1159 8.87429C14.1159 9.57629 13.5364 9.9368 12.5909 10.4669C11.4882 11.0851 10.0291 11.8544 10.0291 13.7791V13.9666C10.0291 14.2772 10.2809 14.5291 10.5916 14.5291H13.2166C13.5272 14.5291 13.7791 14.2772 13.7791 13.9666V13.9041C13.7791 12.5699 17.6784 12.5144 17.6784 8.90405C17.6784 6.18521 14.8582 4.1228 12.216 4.1228ZM11.9041 15.7478C10.7151 15.7478 9.7478 16.7151 9.7478 17.9041C9.7478 19.093 10.7151 20.0603 11.9041 20.0603C13.093 20.0603 14.0603 19.093 14.0603 17.9041C14.0603 16.7151 13.093 15.7478 11.9041 15.7478Z" fill="black"/>
</g>
<defs>
<clipPath id="clip0_103_1499">
<rect width="24" height="24" fill="white"/>
</clipPath>
</defs>
</svg>
