<svg width="19" height="24" viewBox="0 0 19 24" fill="none" xmlns="http://www.w3.org/2000/svg">
<g clip-path="url(#clip0_103_1495)">
<path d="M18 0C18.2321 0 18.433 0.0848214 18.6027 0.254464C18.7723 0.424107 18.8571 0.625 18.8571 0.857143V23.1429C18.8571 23.375 18.7723 23.5759 18.6027 23.7455C18.433 23.9152 18.2321 24 18 24H0.857143C0.625 24 0.424107 23.9152 0.254464 23.7455C0.0848214 23.5759 0 23.375 0 23.1429V0.857143C0 0.625 0.0848214 0.424107 0.254464 0.254464C0.424107 0.0848214 0.625 0 0.857143 0H18ZM6.85714 3.85714V4.71429C6.85714 4.83929 6.89732 4.94196 6.97768 5.02232C7.05804 5.10268 7.16071 5.14286 7.28571 5.14286H8.14286C8.26786 5.14286 8.37054 5.10268 8.45089 5.02232C8.53125 4.94196 8.57143 4.83929 8.57143 4.71429V3.85714C8.57143 3.73214 8.53125 3.62946 8.45089 3.54911C8.37054 3.46875 8.26786 3.42857 8.14286 3.42857H7.28571C7.16071 3.42857 7.05804 3.46875 6.97768 3.54911C6.89732 3.62946 6.85714 3.73214 6.85714 3.85714ZM6.85714 7.28571V8.14286C6.85714 8.26786 6.89732 8.37054 6.97768 8.45089C7.05804 8.53125 7.16071 8.57143 7.28571 8.57143H8.14286C8.26786 8.57143 8.37054 8.53125 8.45089 8.45089C8.53125 8.37054 8.57143 8.26786 8.57143 8.14286V7.28571C8.57143 7.16071 8.53125 7.05804 8.45089 6.97768C8.37054 6.89732 8.26786 6.85714 8.14286 6.85714H7.28571C7.16071 6.85714 7.05804 6.89732 6.97768 6.97768C6.89732 7.05804 6.85714 7.16071 6.85714 7.28571ZM6.85714 10.7143V11.5714C6.85714 11.6964 6.89732 11.7991 6.97768 11.8795C7.05804 11.9598 7.16071 12 7.28571 12H8.14286C8.26786 12 8.37054 11.9598 8.45089 11.8795C8.53125 11.7991 8.57143 11.6964 8.57143 11.5714V10.7143C8.57143 10.5893 8.53125 10.4866 8.45089 10.4063C8.37054 10.3259 8.26786 10.2857 8.14286 10.2857H7.28571C7.16071 10.2857 7.05804 10.3259 6.97768 10.4063C6.89732 10.4866 6.85714 10.5893 6.85714 10.7143ZM6.85714 14.1429V15C6.85714 15.125 6.89732 15.2277 6.97768 15.308C7.05804 15.3884 7.16071 15.4286 7.28571 15.4286H8.14286C8.26786 15.4286 8.37054 15.3884 8.45089 15.308C8.53125 15.2277 8.57143 15.125 8.57143 15V14.1429C8.57143 14.0179 8.53125 13.9152 8.45089 13.8348C8.37054 13.7545 8.26786 13.7143 8.14286 13.7143H7.28571C7.16071 13.7143 7.05804 13.7545 6.97768 13.8348C6.89732 13.9152 6.85714 14.0179 6.85714 14.1429ZM5.14286 18.4286V17.5714C5.14286 17.4464 5.10268 17.3438 5.02232 17.2634C4.94196 17.183 4.83929 17.1429 4.71429 17.1429H3.85714C3.73214 17.1429 3.62946 17.183 3.54911 17.2634C3.46875 17.3438 3.42857 17.4464 3.42857 17.5714V18.4286C3.42857 18.5536 3.46875 18.6563 3.54911 18.7366C3.62946 18.817 3.73214 18.8571 3.85714 18.8571H4.71429C4.83929 18.8571 4.94196 18.817 5.02232 18.7366C5.10268 18.6563 5.14286 18.5536 5.14286 18.4286ZM5.14286 15V14.1429C5.14286 14.0179 5.10268 13.9152 5.02232 13.8348C4.94196 13.7545 4.83929 13.7143 4.71429 13.7143H3.85714C3.73214 13.7143 3.62946 13.7545 3.54911 13.8348C3.46875 13.9152 3.42857 14.0179 3.42857 14.1429V15C3.42857 15.125 3.46875 15.2277 3.54911 15.308C3.62946 15.3884 3.73214 15.4286 3.85714 15.4286H4.71429C4.83929 15.4286 4.94196 15.3884 5.02232 15.308C5.10268 15.2277 5.14286 15.125 5.14286 15ZM5.14286 11.5714V10.7143C5.14286 10.5893 5.10268 10.4866 5.02232 10.4063C4.94196 10.3259 4.83929 10.2857 4.71429 10.2857H3.85714C3.73214 10.2857 3.62946 10.3259 3.54911 10.4063C3.46875 10.4866 3.42857 10.5893 3.42857 10.7143V11.5714C3.42857 11.6964 3.46875 11.7991 3.54911 11.8795C3.62946 11.9598 3.73214 12 3.85714 12H4.71429C4.83929 12 4.94196 11.9598 5.02232 11.8795C5.10268 11.7991 5.14286 11.6964 5.14286 11.5714ZM5.14286 8.14286V7.28571C5.14286 7.16071 5.10268 7.05804 5.02232 6.97768C4.94196 6.89732 4.83929 6.85714 4.71429 6.85714H3.85714C3.73214 6.85714 3.62946 6.89732 3.54911 6.97768C3.46875 7.05804 3.42857 7.16071 3.42857 7.28571V8.14286C3.42857 8.26786 3.46875 8.37054 3.54911 8.45089C3.62946 8.53125 3.73214 8.57143 3.85714 8.57143H4.71429C4.83929 8.57143 4.94196 8.53125 5.02232 8.45089C5.10268 8.37054 5.14286 8.26786 5.14286 8.14286ZM5.14286 4.71429V3.85714C5.14286 3.73214 5.10268 3.62946 5.02232 3.54911C4.94196 3.46875 4.83929 3.42857 4.71429 3.42857H3.85714C3.73214 3.42857 3.62946 3.46875 3.54911 3.54911C3.46875 3.62946 3.42857 3.73214 3.42857 3.85714V4.71429C3.42857 4.83929 3.46875 4.94196 3.54911 5.02232C3.62946 5.10268 3.73214 5.14286 3.85714 5.14286H4.71429C4.83929 5.14286 4.94196 5.10268 5.02232 5.02232C5.10268 4.94196 5.14286 4.83929 5.14286 4.71429ZM12 21.8571V19.2857C12 19.1607 11.9598 19.058 11.8795 18.9777C11.7991 18.8973 11.6964 18.8571 11.5714 18.8571H7.28571C7.16071 18.8571 7.05804 18.8973 6.97768 18.9777C6.89732 19.058 6.85714 19.1607 6.85714 19.2857V21.8571C6.85714 21.9821 6.89732 22.0848 6.97768 22.1652C7.05804 22.2455 7.16071 22.2857 7.28571 22.2857H11.5714C11.6964 22.2857 11.7991 22.2455 11.8795 22.1652C11.9598 22.0848 12 21.9821 12 21.8571ZM12 15V14.1429C12 14.0179 11.9598 13.9152 11.8795 13.8348C11.7991 13.7545 11.6964 13.7143 11.5714 13.7143H10.7143C10.5893 13.7143 10.4866 13.7545 10.4062 13.8348C10.3259 13.9152 10.2857 14.0179 10.2857 14.1429V15C10.2857 15.125 10.3259 15.2277 10.4062 15.308C10.4866 15.3884 10.5893 15.4286 10.7143 15.4286H11.5714C11.6964 15.4286 11.7991 15.3884 11.8795 15.308C11.9598 15.2277 12 15.125 12 15ZM12 11.5714V10.7143C12 10.5893 11.9598 10.4866 11.8795 10.4063C11.7991 10.3259 11.6964 10.2857 11.5714 10.2857H10.7143C10.5893 10.2857 10.4866 10.3259 10.4062 10.4063C10.3259 10.4866 10.2857 10.5893 10.2857 10.7143V11.5714C10.2857 11.6964 10.3259 11.7991 10.4062 11.8795C10.4866 11.9598 10.5893 12 10.7143 12H11.5714C11.6964 12 11.7991 11.9598 11.8795 11.8795C11.9598 11.7991 12 11.6964 12 11.5714ZM12 8.14286V7.28571C12 7.16071 11.9598 7.05804 11.8795 6.97768C11.7991 6.89732 11.6964 6.85714 11.5714 6.85714H10.7143C10.5893 6.85714 10.4866 6.89732 10.4062 6.97768C10.3259 7.05804 10.2857 7.16071 10.2857 7.28571V8.14286C10.2857 8.26786 10.3259 8.37054 10.4062 8.45089C10.4866 8.53125 10.5893 8.57143 10.7143 8.57143H11.5714C11.6964 8.57143 11.7991 8.53125 11.8795 8.45089C11.9598 8.37054 12 8.26786 12 8.14286ZM12 4.71429V3.85714C12 3.73214 11.9598 3.62946 11.8795 3.54911C11.7991 3.46875 11.6964 3.42857 11.5714 3.42857H10.7143C10.5893 3.42857 10.4866 3.46875 10.4062 3.54911C10.3259 3.62946 10.2857 3.73214 10.2857 3.85714V4.71429C10.2857 4.83929 10.3259 4.94196 10.4062 5.02232C10.4866 5.10268 10.5893 5.14286 10.7143 5.14286H11.5714C11.6964 5.14286 11.7991 5.10268 11.8795 5.02232C11.9598 4.94196 12 4.83929 12 4.71429ZM15.4286 18.4286V17.5714C15.4286 17.4464 15.3884 17.3438 15.308 17.2634C15.2277 17.183 15.125 17.1429 15 17.1429H14.1429C14.0179 17.1429 13.9152 17.183 13.8348 17.2634C13.7545 17.3438 13.7143 17.4464 13.7143 17.5714V18.4286C13.7143 18.5536 13.7545 18.6563 13.8348 18.7366C13.9152 18.817 14.0179 18.8571 14.1429 18.8571H15C15.125 18.8571 15.2277 18.817 15.308 18.7366C15.3884 18.6563 15.4286 18.5536 15.4286 18.4286ZM15.4286 15V14.1429C15.4286 14.0179 15.3884 13.9152 15.308 13.8348C15.2277 13.7545 15.125 13.7143 15 13.7143H14.1429C14.0179 13.7143 13.9152 13.7545 13.8348 13.8348C13.7545 13.9152 13.7143 14.0179 13.7143 14.1429V15C13.7143 15.125 13.7545 15.2277 13.8348 15.308C13.9152 15.3884 14.0179 15.4286 14.1429 15.4286H15C15.125 15.4286 15.2277 15.3884 15.308 15.308C15.3884 15.2277 15.4286 15.125 15.4286 15ZM15.4286 11.5714V10.7143C15.4286 10.5893 15.3884 10.4866 15.308 10.4063C15.2277 10.3259 15.125 10.2857 15 10.2857H14.1429C14.0179 10.2857 13.9152 10.3259 13.8348 10.4063C13.7545 10.4866 13.7143 10.5893 13.7143 10.7143V11.5714C13.7143 11.6964 13.7545 11.7991 13.8348 11.8795C13.9152 11.9598 14.0179 12 14.1429 12H15C15.125 12 15.2277 11.9598 15.308 11.8795C15.3884 11.7991 15.4286 11.6964 15.4286 11.5714ZM15.4286 8.14286V7.28571C15.4286 7.16071 15.3884 7.05804 15.308 6.97768C15.2277 6.89732 15.125 6.85714 15 6.85714H14.1429C14.0179 6.85714 13.9152 6.89732 13.8348 6.97768C13.7545 7.05804 13.7143 7.16071 13.7143 7.28571V8.14286C13.7143 8.26786 13.7545 8.37054 13.8348 8.45089C13.9152 8.53125 14.0179 8.57143 14.1429 8.57143H15C15.125 8.57143 15.2277 8.53125 15.308 8.45089C15.3884 8.37054 15.4286 8.26786 15.4286 8.14286ZM15.4286 4.71429V3.85714C15.4286 3.73214 15.3884 3.62946 15.308 3.54911C15.2277 3.46875 15.125 3.42857 15 3.42857H14.1429C14.0179 3.42857 13.9152 3.46875 13.8348 3.54911C13.7545 3.62946 13.7143 3.73214 13.7143 3.85714V4.71429C13.7143 4.83929 13.7545 4.94196 13.8348 5.02232C13.9152 5.10268 14.0179 5.14286 14.1429 5.14286H15C15.125 5.14286 15.2277 5.10268 15.308 5.02232C15.3884 4.94196 15.4286 4.83929 15.4286 4.71429Z" fill="black"/>
</g>
<defs>
<clipPath id="clip0_103_1495">
<rect width="18.8571" height="24" fill="white"/>
</clipPath>
</defs>
</svg>
