<svg width="20" height="24" viewBox="0 0 20 24" fill="none" xmlns="http://www.w3.org/2000/svg">
<g clip-path="url(#clip0_103_1497)">
<path d="M5.45455 10.9091H14.1818V7.63636C14.1818 6.43182 13.7557 5.40341 12.9034 4.55114C12.0511 3.69886 11.0227 3.27273 9.81818 3.27273C8.61364 3.27273 7.58523 3.69886 6.73295 4.55114C5.88068 5.40341 5.45455 6.43182 5.45455 7.63636V10.9091ZM19.6364 12.5455V22.3636C19.6364 22.8182 19.4773 23.2045 19.1591 23.5227C18.8409 23.8409 18.4545 24 18 24H1.63636C1.18182 24 0.795455 23.8409 0.477273 23.5227C0.159091 23.2045 0 22.8182 0 22.3636V12.5455C0 12.0909 0.159091 11.7045 0.477273 11.3864C0.795455 11.0682 1.18182 10.9091 1.63636 10.9091H2.18182V7.63636C2.18182 5.54545 2.93182 3.75 4.43182 2.25C5.93182 0.75 7.72727 0 9.81818 0C11.9091 0 13.7045 0.75 15.2045 2.25C16.7045 3.75 17.4545 5.54545 17.4545 7.63636V10.9091H18C18.4545 10.9091 18.8409 11.0682 19.1591 11.3864C19.4773 11.7045 19.6364 12.0909 19.6364 12.5455Z" fill="black"/>
</g>
<defs>
<clipPath id="clip0_103_1497">
<rect width="19.6364" height="24" fill="white"/>
</clipPath>
</defs>
</svg>
